<?xml version="1.0" encoding="UTF-8"?>
<!DOCTYPE svg PUBLIC "-//W3C//DTD SVG 1.1//EN" "http://www.w3.org/Graphics/SVG/1.1/DTD/svg11.dtd">
<!-- Creator: CorelDRAW 2020 (64-Bit) -->
<svg xmlns="http://www.w3.org/2000/svg" xml:space="preserve" width="39.3082mm" height="30.7538mm" version="1.1" style="shape-rendering:geometricPrecision; text-rendering:geometricPrecision; image-rendering:optimizeQuality; fill-rule:evenodd; clip-rule:evenodd"
viewBox="0 0 389.47 304.71"
 xmlns:xlink="http://www.w3.org/1999/xlink"
 xmlns:xodm="http://www.corel.com/coreldraw/odm/2003">
 <defs>
  <style type="text/css">
   <![CDATA[
    .fil2 {fill:#F7A30A}
    .fil0 {fill:#00247D}
    .fil1 {fill:#00247D;fill-rule:nonzero}
   ]]>
  </style>
 </defs>
 <g id="Layer_x0020_1">
  <metadata id="CorelCorpID_0Corel-Layer"/>
  <g id="_1964178480384">
   <polygon class="fil0" points="110.91,0 278.56,0 278.56,137.21 248.12,137.21 141.36,137.21 141.36,30.44 248.12,30.44 248.12,137.21 248.12,167.65 110.91,167.65 "/>
   <path class="fil1" d="M56.77 245.74l-30.38 0 -26.38 58.72 22.53 0 4.43 -9.86 29.11 0 4.43 9.86 22.65 0 -26.38 -58.72zm-22.85 31.84l7.59 -15.38 7.59 15.38 -15.18 0zm52.05 -32.05l0 58.93 19.5 0 0 -11.95c4.94,0 17.62,0 22.47,0 6.08,0 24.71,-2.54 24.71,-24.37 0,-21.81 -19.81,-22.61 -25.38,-22.61l-41.3 0zm40.69 29.63c-2.99,0 -21.18,0 -21.18,0l0 -12.28c0,0 18.11,0 20.85,0 2.74,0 8.07,0.21 8.07,5.91 0,5.69 -4.74,6.36 -7.73,6.36l0 0zm67.87 -30.52c-26.41,0 -39.09,9.26 -39.09,28.94 0,21.07 11.58,31.14 39.62,31.14 27.32,0 40.34,-7.13 40.34,-30.03 0,-23.41 -15.35,-30.05 -40.87,-30.05zm0.73 44.64c-12.54,0 -18.32,-6.08 -18.32,-14.6 0,-9.17 5.79,-14.61 18.06,-14.61 11.05,0 18.89,4.82 18.89,14.61 0,10.11 -7.21,14.6 -18.64,14.6l0 0zm82.51 -44.22c-25.7,0 -39.61,7.96 -39.61,30.51 0,19.84 9.69,29.15 40.11,29.15 31.91,0 39.93,-11.28 39.93,-24.78l-20.05 0c0,0 -0.17,8.19 -20.54,8.19 -15.14,0 -19.27,-5.9 -19.27,-13.25 0,-6.53 2.77,-13.03 19.27,-13.03 19.14,0 20.54,9.72 20.54,9.72l20.05 0c0,-15.86 -10.07,-26.51 -40.44,-26.51l0 0zm45.03 0.47l0 58.93 19.5 0 0 -11.95c4.94,0 17.62,0 22.47,0 6.08,0 24.71,-2.54 24.71,-24.37 0,-21.81 -19.81,-22.61 -25.38,-22.61l-41.3 0zm40.69 29.63c-2.99,0 -21.18,0 -21.18,0l0 -12.28c0,0 18.11,0 20.85,0 2.74,0 8.07,0.21 8.07,5.91 0,5.69 -4.74,6.36 -7.73,6.36l0 0z"/>
   <polygon class="fil2" points="263.34,152.43 293.78,152.43 293.78,182.87 263.34,182.87 "/>
  </g>
 </g>
</svg>
